<svg width="24" height="24" viewBox="0 0 24 24" fill="none" xmlns="http://www.w3.org/2000/svg">
  <!-- 노트 배경 -->
  <path d="M4 3C4 2.4 4.4 2 5 2H19C19.6 2 20 2.4 20 3V21C20 21.6 19.6 22 19 22H5C4.4 22 4 21.6 4 21V3Z" fill="#3B82F6"/>
  
  <!-- 노트 왼쪽 구멍들 -->
  <circle cx="6" cy="6" r="0.5" fill="white"/>
  <circle cx="6" cy="8" r="0.5" fill="white"/>
  <circle cx="6" cy="10" r="0.5" fill="white"/>
  <circle cx="6" cy="12" r="0.5" fill="white"/>
  <circle cx="6" cy="14" r="0.5" fill="white"/>
  <circle cx="6" cy="16" r="0.5" fill="white"/>
  <circle cx="6" cy="18" r="0.5" fill="white"/>
  
  <!-- 노트 내용 (체크마크) -->
  <path d="M9 8L11 10L15 6" stroke="white" stroke-width="1.5" stroke-linecap="round" stroke-linejoin="round" fill="none"/>
  
  <!-- 노트 내용 (텍스트 라인들) -->
  <path d="M9 12H17" stroke="white" stroke-width="1" stroke-linecap="round"/>
  <path d="M9 14H15" stroke="white" stroke-width="1" stroke-linecap="round"/>
  <path d="M9 16H16" stroke="white" stroke-width="1" stroke-linecap="round"/>
</svg>
